<svg width="26" height="27" viewBox="0 0 26 27" fill="none" xmlns="http://www.w3.org/2000/svg">
<g clip-path="url(#clip0)">
<path d="M8.29394 20.7233C6.79481 20.7233 5.57959 21.9386 5.57959 23.4376C5.57959 24.9368 6.79487 26.152 8.29394 26.152C9.79307 26.152 11.0083 24.9367 11.0083 23.4376C11.0084 21.9386 9.79307 20.7233 8.29394 20.7233ZM8.29394 24.9456C7.46111 24.9456 6.78598 24.2705 6.78598 23.4377C6.78598 22.6048 7.46111 21.9297 8.29394 21.9297C9.12678 21.9297 9.8019 22.6048 9.8019 23.4377C9.80196 24.2705 9.12678 24.9456 8.29394 24.9456Z" fill="black"/>
<path d="M19.7546 20.7233C18.2555 20.7233 17.0403 21.9386 17.0403 23.4376C17.0403 24.9368 18.2556 26.152 19.7546 26.152C21.2537 26.152 22.469 24.9367 22.469 23.4376C22.469 21.9386 21.2538 20.7233 19.7546 20.7233ZM19.7546 24.9456C18.9218 24.9456 18.2467 24.2705 18.2467 23.4377C18.2467 22.6048 18.9218 21.9297 19.7546 21.9297C20.5875 21.9297 21.2626 22.6048 21.2626 23.4377C21.2627 24.2705 20.5875 24.9456 19.7546 24.9456Z" fill="black"/>
<path d="M25.8771 4.88947C25.7514 4.75226 25.5796 4.66636 25.3945 4.64817L5.76053 4.37674L5.21766 2.71793C4.83521 1.60905 3.7968 0.860434 2.62389 0.848022H0.603196C0.27005 0.848022 0 1.11807 0 1.45122C0 1.78436 0.27005 2.05441 0.603196 2.05441H2.62389C3.27974 2.0689 3.85725 2.49003 4.07159 3.11002L7.90188 14.6612L7.60031 15.3549C7.26393 16.2223 7.36495 17.1986 7.87174 17.9787C8.37368 18.745 9.21812 19.2179 10.1337 19.2455H21.8659C22.199 19.2455 22.4691 18.9754 22.4691 18.6423C22.4691 18.3091 22.199 18.0391 21.8659 18.0391H10.1337C9.61662 18.0261 9.14065 17.7541 8.86697 17.3152C8.59634 16.8817 8.54075 16.3476 8.71618 15.8675L8.95748 15.3247L21.6547 13.9976C23.0494 13.844 24.1967 12.8296 24.5199 11.4642L25.9676 5.4021C26.0329 5.22753 25.9982 5.0312 25.8771 4.88947ZM23.3437 11.1928C23.1479 12.0718 22.4016 12.7201 21.504 12.7913L8.95748 14.0881L6.15261 5.58313L24.6405 5.85456L23.3437 11.1928Z" fill="black"/>
</g>
<defs>
<clipPath id="clip0">
<rect width="26" height="26" fill="white" transform="translate(0 0.5)"/>
</clipPath>
</defs>
</svg>
