<svg width="26" height="27" viewBox="0 0 26 27" fill="none" xmlns="http://www.w3.org/2000/svg">
<g clip-path="url(#clip0)">
<path d="M14.0833 20C14.0833 20.5983 13.5983 21.0833 13 21.0833C12.4017 21.0833 11.9167 20.5983 11.9167 20C11.9167 19.4017 12.4017 18.9167 13 18.9167C13.5983 18.9167 14.0833 19.4017 14.0833 20Z" fill="black"/>
<path d="M13 26.5C5.83151 26.5 0 20.6685 0 13.5C0 6.33151 5.83151 0.5 13 0.5C20.1685 0.5 26 6.33151 26 13.5C26 20.6685 20.1685 26.5 13 26.5ZM13 2.125C6.72752 2.125 1.625 7.22752 1.625 13.5C1.625 19.7725 6.72752 24.875 13 24.875C19.2725 24.875 24.375 19.7725 24.375 13.5C24.375 7.22752 19.2725 2.125 13 2.125Z" fill="black"/>
<path d="M13 16.4792C12.5515 16.4792 12.1875 16.1152 12.1875 15.6667V14.5725C12.1875 13.5412 12.8419 12.6171 13.8147 12.2737C15.1092 11.8177 15.9792 10.4384 15.9792 9.43749C15.9792 7.79404 14.6434 6.45825 13 6.45825C11.3565 6.45825 10.0208 7.79404 10.0208 9.43749C10.0208 9.88599 9.65675 10.25 9.20825 10.25C8.75975 10.25 8.39575 9.88599 8.39575 9.43749C8.39575 6.89922 10.4607 4.83325 13 4.83325C15.5392 4.83325 17.6042 6.89922 17.6042 9.43749C17.6042 11.2446 16.1774 13.1632 14.3552 13.8067C14.0303 13.9203 13.8125 14.229 13.8125 14.5735V15.6667C13.8125 16.1152 13.4485 16.4792 13 16.4792Z" fill="black"/>
</g>
<defs>
<clipPath id="clip0">
<rect width="26" height="26" fill="white" transform="translate(0 0.5)"/>
</clipPath>
</defs>
</svg>
